<?xml version="1.0" standalone="no"?><!DOCTYPE svg PUBLIC "-//W3C//DTD SVG 1.1//EN" "http://www.w3.org/Graphics/SVG/1.1/DTD/svg11.dtd"><svg t="1684460967194" class="icon" viewBox="0 0 1028 1024" version="1.1" xmlns="http://www.w3.org/2000/svg" p-id="9007" xmlns:xlink="http://www.w3.org/1999/xlink" width="200.78125" height="200"><path d="M581.12 753.28v137.6h206.72a34.56 34.56 0 1 1 0 69.12H305.28a34.56 34.56 0 1 1 0-69.12H512v-137.6H201.6A137.6 137.6 0 0 1 64 615.68V201.6A137.6 137.6 0 0 1 201.6 64h689.28a137.6 137.6 0 0 1 137.6 137.6v414.08a137.6 137.6 0 0 1-137.6 137.6zM201.6 133.12a69.76 69.76 0 0 0-68.48 68.48v414.08a69.76 69.76 0 0 0 69.12 69.12h688.64A69.76 69.76 0 0 0 960 615.68V201.6a69.76 69.76 0 0 0-69.12-69.12z" p-id="9008"></path></svg>