<?xml version="1.0" standalone="no"?><!DOCTYPE svg PUBLIC "-//W3C//DTD SVG 1.1//EN" "http://www.w3.org/Graphics/SVG/1.1/DTD/svg11.dtd"><svg t="1685509773711" class="icon" viewBox="0 0 1024 1024" version="1.1" xmlns="http://www.w3.org/2000/svg" p-id="1301" xmlns:xlink="http://www.w3.org/1999/xlink" width="200" height="200"><path d="M0 0m512 0l0 0q512 0 512 512l0 0q0 512-512 512l0 0q-512 0-512-512l0 0q0-512 512-512Z" fill="#ED7328" p-id="1302"></path><path d="M545.792 244.712727l4.049455 3.665455 89.041454 89.053091h56.389818a96 96 0 0 1 95.953455 93.079272l0.046545 2.932364v261.818182a96 96 0 0 1-93.067636 95.965091L695.272727 791.272727h-366.545454a96 96 0 0 1-95.953455-93.067636L232.727273 695.272727V433.442909a96 96 0 0 1 93.067636-95.965091l2.932364-0.046545h56.378182l89.018181-89.018182h0.034909a53.550545 53.550545 0 0 1 71.633455-3.700364z m79.662545 345.832728h-226.90909a26.181818 26.181818 0 0 0-1.989819 52.282181l1.989819 0.081455h226.90909a26.181818 26.181818 0 0 0 0-52.363636z m-69.818181-104.73891h-157.090909c-16.733091 0-25.437091 8.017455-26.135273 24.040728L372.363636 512l0.046546 2.141091c0.663273 15.325091 8.669091 23.330909 23.994182 23.994182l2.141091 0.046545h157.090909c16.733091 0 25.437091-8.017455 26.135272-24.040727l0.046546-2.141091-0.046546-2.141091c-0.698182-16.023273-9.402182-24.040727-26.135272-24.040727z m-43.950546-200.704l-0.523636 0.314182-52.014546 52.014546h105.704728l-52.014546-52.014546a1.186909 1.186909 0 0 0-1.152-0.314182z" fill="#FFFFFF" p-id="1303"></path></svg>