<?xml version="1.0" standalone="no"?><!DOCTYPE svg PUBLIC "-//W3C//DTD SVG 1.1//EN" "http://www.w3.org/Graphics/SVG/1.1/DTD/svg11.dtd"><svg t="1685509781108" class="icon" viewBox="0 0 1035 1024" version="1.1" xmlns="http://www.w3.org/2000/svg" p-id="1462" xmlns:xlink="http://www.w3.org/1999/xlink" width="202.1484375" height="200"><path d="M1.664 0m512 0l0 0q512 0 512 512l0 0q0 512-512 512l0 0q-512 0-512-512l0 0q0-512 512-512Z" fill="#4DA0FF" p-id="1463"></path><path d="M808.180364 575.185455L567.272727 793.483636A83.153455 83.153455 0 0 1 513.664 813.125818c-20.130909 0-38.632727-7.307636-53.294545-19.362909L219.636364 575.720727A35.944727 35.944727 0 0 1 211.118545 552.471273c0-16.290909 10.670545-29.858909 24.983273-34.013091 0 0 3.514182-1.361455 8.517818-1.361455h70.970182V289.652364c0-32.721455 23.842909-56.925091 55.307637-56.925091h285.463272c31.476364 0 55.307636 24.203636 55.307637 56.925091v227.444363h69.562181c0.267636 0 0.465455-0.081455 0.733091-0.081454 0.279273 0 0.407273 0.081455 0.674909 0.081454h0.814546l0.069818 0.069818c18.234182 0.814545 32.686545 16.290909 32.686546 35.374546a35.665455 35.665455 0 0 1-8.029091 22.644364z m-217.530182-97.838546c12.637091 0 19.991273-10.088727 19.991273-23.179636 0-13.032727-7.424-22.365091-19.991273-22.365091h-48.558546l50.176-52.154182a24.494545 24.494545 0 0 0 0-33.745455 22.516364 22.516364 0 0 0-32.546909 0l-46.464 48.279273-46.312727-48.058182a22.516364 22.516364 0 0 0-32.558545 0 24.494545 24.494545 0 0 0 0 33.745455l50.176 52.014545-47.941819-0.081454c-12.637091 0-19.991273 9.204364-19.991272 22.365091 0 13.090909 7.435636 23.179636 19.991272 23.179636h49.559273v28.509091h-49.501091c-12.637091 0-20.002909 8.448-20.002909 21.527273 0 13.090909 7.435636 24.005818 20.002909 24.005818h49.570909v34.094545c0 16.349091 11.752727 28.497455 27.485091 28.497455s27.543273-12.066909 27.543273-28.509091v-34.094545h50.920727c12.567273 0 18.571636-8.715636 18.571637-21.806546 0-17.047273-8.785455-23.726545-21.341091-23.726545h-48.151273v-28.497455h49.373091z" fill="#FFFFFF" p-id="1464"></path></svg>