<?xml version="1.0" standalone="no"?><!DOCTYPE svg PUBLIC "-//W3C//DTD SVG 1.1//EN" "http://www.w3.org/Graphics/SVG/1.1/DTD/svg11.dtd"><svg t="1685509767055" class="icon" viewBox="0 0 1024 1024" version="1.1" xmlns="http://www.w3.org/2000/svg" p-id="1140" xmlns:xlink="http://www.w3.org/1999/xlink" width="200" height="200"><path d="M0 0m512 0l0 0q512 0 512 512l0 0q0 512-512 512l0 0q-512 0-512-512l0 0q0-512 512-512Z" fill="#69D35A" p-id="1141"></path><path d="M669.672727 517.992727c67.165091 0 121.6 54.434909 121.6 121.6 0 67.141818-54.434909 121.6-121.6 121.6-67.153455 0-121.6-54.458182-121.6-121.6 0-67.165091 54.446545-121.6 121.6-121.6zM520.285091 244.363636a46.824727 46.824727 0 0 1 46.813091 44.334546l0.058182 2.327273v236.171636a150.667636 150.667636 0 0 0-49.477819 111.744c0 48.314182 22.737455 91.345455 58.14691 119.063273l-295.04 0.279272a24.808727 24.808727 0 0 1-21.469091-12.334545 24.587636 24.587636 0 0 1 0-24.680727 24.797091 24.797091 0 0 1 19.432727-12.264728l2.036364-0.081454 0.907636-0.430546v-356.654545c-0.349091-25.553455 13.870545-35.874909 43.845818-45.696l3.060364-0.977455L520.285091 244.363636z m148.992 324.119273c-20.084364 0-36.363636 15.418182-36.363636 34.443636 0 13.533091 8.226909 25.239273 20.200727 30.871273v15.069091h-20.200727c-13.381818 0-24.238545 10.845091-24.238546 24.238546v17.035636c0 2.56 2.094545 4.654545 4.654546 4.654545h111.883636a4.654545 4.654545 0 0 0 4.654545-4.654545v-17.035636c0-13.381818-10.845091-24.238545-24.238545-24.238546h-20.200727v-15.069091c11.973818-5.632 20.200727-17.338182 20.200727-30.871273 0-19.025455-16.279273-34.443636-36.352-34.443636z m-263.342546-41.029818h-60.16a20.584727 20.584727 0 0 0-1.698909 41.099636l1.698909 0.069818h60.16a20.584727 20.584727 0 0 0 0-41.169454z m235.252364-141.195636c25.088 0 45.568 17.489455 46.836364 42.030545l0.058182 2.397091v58.007273a154.181818 154.181818 0 0 0-18.408728-1.105455c-26.961455 0-52.293818 6.993455-74.24 19.258182V386.257455h45.754182z m-235.252364 10.100363h-60.16a20.584727 20.584727 0 0 0-1.698909 41.099637l1.698909 0.069818h60.16a20.584727 20.584727 0 0 0 0-41.169455z" fill="#FFFFFF" p-id="1142"></path></svg>